<?xml version="1.0" encoding="UTF-8"?>
<svg width="51px" height="50px" viewBox="0 0 51 50" version="1.1" xmlns="http://www.w3.org/2000/svg" xmlns:xlink="http://www.w3.org/1999/xlink">
    <!-- Generator: Sketch 52.4 (67378) - http://www.bohemiancoding.com/sketch -->
    <title>Path</title>
    <desc>Created with Sketch.</desc>
    <g id="Page-1" stroke="none" stroke-width="1" fill="none" fill-rule="evenodd">
        <g id="MacBook-Pro-15''-(1440-x-900)-Copy-2" transform="translate(-1350.000000, -38.000000)" fill="#FFFFFF">
            <path d="M1400.35073,74.3283607 C1400.01702,73.2521311 1398.91389,72.6637705 1397.88664,73.0127869 L1395.34369,73.8785246 C1396.90147,70.5027869 1397.71736,66.7906557 1397.71736,63 C1397.71736,49.214918 1387.01459,38 1373.85868,38 C1360.70292,38 1350,49.214918 1350,63 C1350,76.785082 1360.70292,88 1373.85868,88 C1374.93865,88 1375.81431,87.082459 1375.81431,85.9508197 C1375.81431,84.8193443 1374.93865,83.9016393 1373.85868,83.9016393 C1362.85959,83.9016393 1353.91126,74.5254098 1353.91126,63 C1353.91126,51.4747541 1362.85959,42.0983607 1373.85868,42.0983607 C1384.85792,42.0983607 1393.8061,51.4747541 1393.8061,63 C1393.8061,66.1757377 1393.12225,69.2847541 1391.81558,72.1095082 L1390.94681,69.3068852 C1390.6131,68.2308197 1389.50966,67.6419672 1388.48272,67.9913115 C1387.45547,68.3411475 1386.89318,69.4972131 1387.22689,70.5734426 L1389.53297,78.0108197 C1389.80128,78.8768852 1390.56789,79.427541 1391.39238,79.427541 C1391.59248,79.427541 1391.79634,79.395082 1391.99706,79.3268852 L1399.09506,76.9108197 C1400.12215,76.5609836 1400.68444,75.405082 1400.35073,74.3283607 Z" id="Path"></path>
        </g>
    </g>
</svg>